# xmcd
#
# Track frame offsets:
#	150
#	6138
#	22079
#	49112
#	98661
#	123798
#	163214
#	208173
#	248991
#
# Disc length: 3889 seconds
#
# Revision: 0
# Processed by: cddbd v1.5.2PL0 Copyright (c) Steve Scherf et al.
# Submitted via: EasyCDDAExtractor 10.5.1.1
#
DISCID=740f2f09
DTITLE=Allman Brothers Band - 31-10-86 Crackdown On Crack concert Madison Squa
DTITLE=re Garden
DYEAR=1900
DGENRE=
TTITLE0=Bill Graham Introduction
TTITLE1=Midnight Rider
TTITLE2=Blue Sky
TTITLE3=One Way Out
TTITLE4=Statesboro Blues
TTITLE5=Southbound
TTITLE6=Jessica
TTITLE7=Good Lovin'
TTITLE8=Key To The Highway
EXTD=
EXTT0=
EXTT1=
EXTT2=
EXTT3=
EXTT4=
EXTT5=
EXTT6=
EXTT7=
EXTT8=
PLAYORDER=
